<?xml version="1.0" encoding="UTF-8" standalone="no"?>
<!-- Created with Inkscape (http://www.inkscape.org/) -->
<svg xmlns:inkscape="http://www.inkscape.org/namespaces/inkscape" xmlns:rdf="http://www.w3.org/1999/02/22-rdf-syntax-ns#" xmlns="http://www.w3.org/2000/svg" xmlns:cc="http://web.resource.org/cc/" xmlns:xlink="http://www.w3.org/1999/xlink" xmlns:dc="http://purl.org/dc/elements/1.1/" xmlns:svg="http://www.w3.org/2000/svg" xmlns:sodipodi="http://sodipodi.sourceforge.net/DTD/sodipodi-0.dtd" xmlns:ns1="http://sozi.baierouge.fr" id="svg2" viewBox="0 0 425.41 436.27" version="1.0" inkscape:version="0.91 r13725">
  <defs id="defs4">
    <linearGradient id="linearGradient3194">
      <stop id="stop3196" style="stop-color:#ff6900" offset="0"/>
      <stop id="stop3198" style="stop-color:#ff0000" offset=".63760"/>
      <stop id="stop3200" style="stop-color:#db0000" offset="1"/>
    </linearGradient>
    <linearGradient id="linearGradient3036">
      <stop id="stop3038" style="stop-color:#9b7e2a" offset="0"/>
      <stop id="stop3871" style="stop-color:#cdb42a" offset=".53571"/>
      <stop id="stop3040" style="stop-color:#ffea2a" offset="1"/>
    </linearGradient>
    <linearGradient id="linearGradient3026">
      <stop id="stop3028" style="stop-color:#ff6900" offset="0"/>
      <stop id="stop3034" style="stop-color:#ff0000" offset=".78571"/>
      <stop id="stop3030" style="stop-color:#db0000" offset="1"/>
    </linearGradient>
    <filter id="filter2990">
      <feGaussianBlur id="feGaussianBlur2992" stdDeviation="4.0832431" inkscape:collect="always"/>
    </filter>
    <filter id="filter3116" y="-.29901" width="1.4395" x="-.21976" height="1.598">
      <feGaussianBlur id="feGaussianBlur3118" stdDeviation="0.91648506" inkscape:collect="always"/>
    </filter>
    <filter id="filter3188">
      <feGaussianBlur id="feGaussianBlur3190" stdDeviation="0.3169748" inkscape:collect="always"/>
    </filter>
    <filter id="filter3270">
      <feGaussianBlur id="feGaussianBlur3272" stdDeviation="0.61633988" inkscape:collect="always"/>
    </filter>
    <filter id="filter3373">
      <feGaussianBlur id="feGaussianBlur3375" stdDeviation="1.9466033" inkscape:collect="always"/>
    </filter>
    <filter id="filter3399">
      <feGaussianBlur id="feGaussianBlur3401" stdDeviation="2.972707" inkscape:collect="always"/>
    </filter>
    <filter id="filter3415" y="-.22460" width="1.4855" x="-.24277" height="1.4492">
      <feGaussianBlur id="feGaussianBlur3417" stdDeviation="19.27319" inkscape:collect="always"/>
    </filter>
    <radialGradient id="radialGradient5149" spreadMethod="reflect" gradientUnits="userSpaceOnUse" cy="507.49" cx="377.24" gradientTransform="matrix(1.5896 1.0437 -.58709 .93581 63.859 -315.81)" r="44.151">
      <stop id="stop3449" style="stop-color:#ffe6c0" offset="0"/>
      <stop id="stop3451" style="stop-color:#e2a39b" offset=".40345"/>
      <stop id="stop3453" style="stop-color:#ffa88b" offset=".43449"/>
      <stop id="stop3455" style="stop-color:#ffd3c3" offset="1"/>
    </radialGradient>
    <radialGradient id="radialGradient5157" xlink:href="#linearGradient3036" gradientUnits="userSpaceOnUse" cy="630.62" cx="375.98" gradientTransform="matrix(1 0 0 .73499 8.44 166.19)" r="5.0044"/>
    <radialGradient id="radialGradient5159" xlink:href="#linearGradient3036" gradientUnits="userSpaceOnUse" cy="630.62" cx="375.98" gradientTransform="matrix(1 0 0 .73499 -94.161 228.79)" r="5.0044"/>
    <radialGradient id="radialGradient5161" xlink:href="#linearGradient3036" gradientUnits="userSpaceOnUse" cy="630.62" cx="375.98" gradientTransform="matrix(1 0 0 .73499 -149.86 53.732)" r="5.0044"/>
    <radialGradient id="radialGradient5171" xlink:href="#linearGradient3026" gradientUnits="userSpaceOnUse" cy="606.59" cx="286.43" gradientTransform="matrix(1 0 0 .98818 0 7.1721)" r="16.446"/>
    <radialGradient id="radialGradient5175" xlink:href="#linearGradient3036" gradientUnits="userSpaceOnUse" cy="630.62" cx="375.98" gradientTransform="matrix(1 0 0 .73499 3.7511 171.81)" r="5.0044"/>
    <radialGradient id="radialGradient2785" xlink:href="#linearGradient3194" gradientUnits="userSpaceOnUse" cy="605.74" cx="297.67" gradientTransform="matrix(1 0 0 1.0809 20.834 -48.337)" r="95.266"/>
    <radialGradient id="radialGradient2861" fx="123.91" fy="707.26" spreadMethod="reflect" gradientUnits="userSpaceOnUse" cy="702.61" cx="178.77" gradientTransform="matrix(-.32324 .17118 -.76735 -1.449 927.8 1585.6)" r="96.986">
      <stop id="stop2919" style="stop-color:#ffe6b8" offset="0"/>
      <stop id="stop2925" style="stop-color:#ffd0c3" offset=".50333"/>
      <stop id="stop2927" style="stop-color:#ffe0b6" offset=".66833"/>
      <stop id="stop2921" style="stop-color:#ffd3c3" offset="1"/>
    </radialGradient>
    <filter id="filter3492" y="-.14250" width="1.2751" x="-.13754" height="1.285">
      <feGaussianBlur id="feGaussianBlur3494" stdDeviation="10.27553" inkscape:collect="always"/>
    </filter>
    <radialGradient id="radialGradient2513" spreadMethod="reflect" gradientUnits="userSpaceOnUse" cy="670.98" cx="213.38" gradientTransform="matrix(.32345 -.082082 .068597 .27031 110.6 259.49)" r="89.948">
      <stop id="stop2940" style="stop-color:#ffe6d5" offset="0"/>
      <stop id="stop2942" style="stop-color:#fffff2;stop-opacity:.91765" offset="1"/>
    </radialGradient>
    <radialGradient id="radialGradient2516" gradientUnits="userSpaceOnUse" cy="628.75" cx="295.63" gradientTransform="matrix(1.7997 -1.4734 .48682 .59461 -573.73 445.24)" r="72.116">
      <stop id="stop2911" style="stop-color:#ffb091" offset="0"/>
      <stop id="stop2913" style="stop-color:#ff8649" offset="1"/>
    </radialGradient>
    <radialGradient id="radialGradient2518" gradientUnits="userSpaceOnUse" cy="628.75" cx="295.63" gradientTransform="matrix(1.7997 -1.4734 .48682 .59461 -573.73 445.24)" r="72.116">
      <stop id="stop2903" style="stop-color:#c02422" offset="0"/>
      <stop id="stop2905" style="stop-color:#f50000;stop-opacity:.34021" offset="1"/>
    </radialGradient>
    <radialGradient id="radialGradient2523" xlink:href="#linearGradient3194" spreadMethod="reflect" gradientUnits="userSpaceOnUse" cy="590.24" cx="332.53" gradientTransform="matrix(-1.4889 .91139 -.49859 -.81451 1091.9 554.15)" r="108.44"/>
    <linearGradient id="linearGradient2525" y2="743.02" spreadMethod="reflect" gradientUnits="userSpaceOnUse" x2="182.12" gradientTransform="translate(-30.031 -213.97)" y1="630.49" x1="85.344">
      <stop id="stop3441" style="stop-color:#aa0000;stop-opacity:.63918" offset="0"/>
      <stop id="stop3443" style="stop-color:#aa0000;stop-opacity:0" offset="1"/>
    </linearGradient>
    <radialGradient id="radialGradient2528" xlink:href="#linearGradient3194" gradientUnits="userSpaceOnUse" cy="1031.7" cx="166.68" gradientTransform="matrix(1.8855 -1.2569 .65039 .97569 -837.94 -385.99)" r="95.266"/>
    <radialGradient id="radialGradient2530" xlink:href="#linearGradient3194" gradientUnits="userSpaceOnUse" cy="1031.7" cx="166.68" gradientTransform="matrix(1.8855 -1.2569 .65039 .97569 -837.94 -385.99)" r="95.266"/>
    <radialGradient id="radialGradient2618" fx="26.438" fy="-43.485" gradientUnits="userSpaceOnUse" cy="4.1304" cx="4.4807" gradientTransform="matrix(.36154 -.92135 .38007 .14914 139.35 202.21)" r="82.891">
      <stop id="stop3877" style="stop-color:#008600" offset="0"/>
      <stop id="stop3879" style="stop-color:#3cc000" offset="1"/>
    </radialGradient>
    <radialGradient id="radialGradient2652" fx="48.973" fy="466.25" gradientUnits="userSpaceOnUse" cy="432.53" cx="87.289" gradientTransform="matrix(.72637 -.92504 1.0581 .83085 -275.28 -38.572)" r="82.866">
      <stop id="stop3745" style="stop-color:#ff6900" offset="0"/>
      <stop id="stop3747" style="stop-color:#ff0000" offset=".51269"/>
      <stop id="stop3749" style="stop-color:#db0000" offset="1"/>
    </radialGradient>
  </defs>
  <g id="layer1" transform="translate(-54.287 -96.916)">
    <path id="path4750" style="fill-rule:evenodd;filter:url(#filter3415);stroke:url(#radialGradient2785);stroke-width:1px;fill:#630e02" d="m324.54 503.97c113.09 9.03 119.05 190.4 0.02 198.86-130.98 32.21-118.51-141.97-32.29-187.13l15.26-7.48 17.01-4.25z" transform="matrix(1.6737 0 0 .52860 -273.39 -40.263)"/>
    <path id="path3725" style="fill-rule:evenodd;stroke:#aa0000;stroke-width:1.3109px;fill:url(#radialGradient2652)" d="m108.61 223.66c-24.499 75.87 68.28 127.21 141.14 120 35.78 12.07 74.93 9.34 94.04-14.48 20.57-25.63 31.08-60.04 5.22-96.06-42.29-46.05-86.33-139.3-161.48-110.07-43.39 14.71-59.95 63.93-78.92 100.61z"/>
    <path id="path3403" style="fill-rule:evenodd;filter:url(#filter3415);stroke:url(#radialGradient2785);stroke-width:1px;fill:#630e02" d="m324.54 503.97c40.44-0.02 72.92 34.37 82.98 71.51 10.96 36.26 2.73 80.46-28.22 104.52-16.69 11.58-36.47 18.07-55.91 23.46-28.22 7.55-62.62 4.37-82.31-19.58-23.69-28.17-20.59-69.96-3.88-100.79 13.36-26.04 31.04-51.03 54.95-68.31 9.68-6.17 20.84-10.33 32.39-10.81z" transform="matrix(.99985 0 0 1.0593 -29.982 -243.86)"/>
    <path id="path3751" style="opacity:.78889;filter:url(#filter3116);fill:url(#radialGradient5161)" d="m231.12 517.23c0 2.03-2.24 3.68-5 3.68s-5-1.65-5-3.68 2.24-3.67 5-3.67 5 1.64 5 3.67z" transform="matrix(-.72793 -.75467 1.068 -.17319 -187.7 520.02)"/>
    <path id="path3755" style="filter:url(#filter3116);fill:url(#radialGradient5161)" d="m231.12 517.23c0 2.03-2.24 3.68-5 3.68s-5-1.65-5-3.68 2.24-3.67 5-3.67 5 1.64 5 3.67z" transform="matrix(-.72793 -.75467 1.068 -.17319 -203.06 477.99)"/>
    <path id="path3759" style="opacity:.78889;filter:url(#filter3116);fill:url(#radialGradient5161)" d="m231.12 517.23c0 2.03-2.24 3.68-5 3.68s-5-1.65-5-3.68 2.24-3.67 5-3.67 5 1.64 5 3.67z" transform="matrix(-.55759 -.57822 .81710 -.13177 -115.23 467.82)"/>
    <path id="path3763" style="filter:url(#filter3116);fill:url(#radialGradient5161)" d="m231.12 517.23c0 2.03-2.24 3.68-5 3.68s-5-1.65-5-3.68 2.24-3.67 5-3.67 5 1.64 5 3.67z" transform="matrix(-.72793 -.75467 1.068 -.17319 -135.28 516.87)"/>
    <path id="path3767" style="opacity:.88333;filter:url(#filter3116);fill:url(#radialGradient5161)" d="m231.12 517.23c0 2.03-2.24 3.68-5 3.68s-5-1.65-5-3.68 2.24-3.67 5-3.67 5 1.64 5 3.67z" transform="matrix(-.72793 -.75467 1.068 -.17319 -136.06 472.33)"/>
    <path id="path3771" style="opacity:.88333;filter:url(#filter3116);fill:url(#radialGradient5161)" d="m231.12 517.23c0 2.03-2.24 3.68-5 3.68s-5-1.65-5-3.68 2.24-3.67 5-3.67 5 1.64 5 3.67z" transform="matrix(-.72793 -.75467 1.068 -.17319 -92.055 510.75)"/>
    <path id="path3775" style="filter:url(#filter3116);fill:url(#radialGradient5161)" d="m231.12 517.23c0 2.03-2.24 3.68-5 3.68s-5-1.65-5-3.68 2.24-3.67 5-3.67 5 1.64 5 3.67z" transform="matrix(-.72793 -.75467 1.068 -.17319 -103.26 552.58)"/>
    <path id="path3779" style="filter:url(#filter3116);fill:url(#radialGradient5161)" d="m231.12 517.23c0 2.03-2.24 3.68-5 3.68s-5-1.65-5-3.68 2.24-3.67 5-3.67 5 1.64 5 3.67z" transform="matrix(-.55759 -.57822 .81710 -.13177 -49.795 481.55)"/>
    <path id="path3783" style="opacity:.78889;filter:url(#filter3116);fill:url(#radialGradient5161)" d="m231.12 517.23c0 2.03-2.24 3.68-5 3.68s-5-1.65-5-3.68 2.24-3.67 5-3.67 5 1.64 5 3.67z" transform="matrix(-.72793 -.75467 1.068 -.17319 -182.64 563.65)"/>
    <path id="path3787" style="opacity:.78889;filter:url(#filter3116);fill:url(#radialGradient5161)" d="m231.12 517.23c0 2.03-2.24 3.68-5 3.68s-5-1.65-5-3.68 2.24-3.67 5-3.67 5 1.64 5 3.67z" transform="matrix(-.72793 -.75467 1.068 -.17319 -213.42 555.95)"/>
    <path id="path3791" style="filter:url(#filter3116);fill:url(#radialGradient5161)" d="m231.12 517.23c0 2.03-2.24 3.68-5 3.68s-5-1.65-5-3.68 2.24-3.67 5-3.67 5 1.64 5 3.67z" transform="matrix(-.72793 -.75467 1.068 -.17319 -236.49 517.47)"/>
    <path id="path3795" style="filter:url(#filter3116);fill:url(#radialGradient5161)" d="m231.12 517.23c0 2.03-2.24 3.68-5 3.68s-5-1.65-5-3.68 2.24-3.67 5-3.67 5 1.64 5 3.67z" transform="matrix(-.72793 -.75467 1.068 -.17319 -235.96 478.27)"/>
    <path id="path3799" style="filter:url(#filter3116);fill:url(#radialGradient5161)" d="m231.12 517.23c0 2.03-2.24 3.68-5 3.68s-5-1.65-5-3.68 2.24-3.67 5-3.67 5 1.64 5 3.67z" transform="matrix(-.72793 -.75467 1.068 -.17319 -196.89 436.93)"/>
    <path id="path3803" style="filter:url(#filter3116);fill:url(#radialGradient5161)" d="m231.12 517.23c0 2.03-2.24 3.68-5 3.68s-5-1.65-5-3.68 2.24-3.67 5-3.67 5 1.64 5 3.67z" transform="matrix(-.72793 -.75467 1.068 -.17319 -155.91 426.26)"/>
    <path id="path3807" style="opacity:.88333;filter:url(#filter3116);fill:url(#radialGradient5161)" d="m231.12 517.23c0 2.03-2.24 3.68-5 3.68s-5-1.65-5-3.68 2.24-3.67 5-3.67 5 1.64 5 3.67z" transform="matrix(-.72793 -.75467 1.068 -.17319 -118 453.72)"/>
    <path id="path3811" style="opacity:.88333;filter:url(#filter3116);fill:url(#radialGradient5161)" d="m231.12 517.23c0 2.03-2.24 3.68-5 3.68s-5-1.65-5-3.68 2.24-3.67 5-3.67 5 1.64 5 3.67z" transform="matrix(-.72793 -.75467 1.068 -.17319 -78.597 473.46)"/>
    <path id="path3815" style="filter:url(#filter3116);fill:url(#radialGradient5161)" d="m231.12 517.23c0 2.03-2.24 3.68-5 3.68s-5-1.65-5-3.68 2.24-3.67 5-3.67 5 1.64 5 3.67z" transform="matrix(-.72793 -.75467 1.068 -.17319 -51.741 497.41)"/>
    <path id="path3819" style="opacity:.76111;filter:url(#filter3116);fill:url(#radialGradient5161)" d="m231.12 517.23c0 2.03-2.24 3.68-5 3.68s-5-1.65-5-3.68 2.24-3.67 5-3.67 5 1.64 5 3.67z" transform="matrix(-.72793 -.75467 1.068 -.17319 -49.083 540.36)"/>
    <path id="path3823" style="opacity:.76111;filter:url(#filter3116);fill:url(#radialGradient5161)" d="m231.12 517.23c0 2.03-2.24 3.68-5 3.68s-5-1.65-5-3.68 2.24-3.67 5-3.67 5 1.64 5 3.67z" transform="matrix(-.72793 -.75467 1.068 -.17319 -64.793 573.11)"/>
    <path id="path3827" style="opacity:.76111;filter:url(#filter3116);fill:url(#radialGradient5161)" d="m231.12 517.23c0 2.03-2.24 3.68-5 3.68s-5-1.65-5-3.68 2.24-3.67 5-3.67 5 1.64 5 3.67z" transform="matrix(-.72793 -.75467 1.068 -.17319 -81.643 587.46)"/>
    <path id="path3831" style="filter:url(#filter3116);fill:url(#radialGradient5161)" d="m231.12 517.23c0 2.03-2.24 3.68-5 3.68s-5-1.65-5-3.68 2.24-3.67 5-3.67 5 1.64 5 3.67z" transform="matrix(-.73683 -.74709 1.1946 -.28103 -138.67 598.87)"/>
    <path id="path3835" style="filter:url(#filter3116);fill:url(#radialGradient5161)" d="m231.12 517.23c0 2.03-2.24 3.68-5 3.68s-5-1.65-5-3.68 2.24-3.67 5-3.67 5 1.64 5 3.67z" transform="matrix(-.48789 -.50880 .69562 -.097302 7.8833 486.51)"/>
    <path id="path3839" style="filter:url(#filter3116);fill:url(#radialGradient5161)" d="m231.12 517.23c0 2.03-2.24 3.68-5 3.68s-5-1.65-5-3.68 2.24-3.67 5-3.67 5 1.64 5 3.67z" transform="matrix(-.72793 -.75467 1.068 -.17319 -159.73 530.12)"/>
    <path id="path3843" style="filter:url(#filter3116);fill:url(#radialGradient5161)" d="m231.12 517.23c0 2.03-2.24 3.68-5 3.68s-5-1.65-5-3.68 2.24-3.67 5-3.67 5 1.64 5 3.67z" transform="matrix(-.72793 -.75467 1.068 -.17319 -186.77 399.75)"/>
    <path id="path3847" style="filter:url(#filter3116);fill:url(#radialGradient5161)" d="m231.12 517.23c0 2.03-2.24 3.68-5 3.68s-5-1.65-5-3.68 2.24-3.67 5-3.67 5 1.64 5 3.67z" transform="matrix(-.33861 -.33574 .60027 -.17687 -77.761 344.31)"/>
    <path id="path3851" style="filter:url(#filter3116);fill:url(#radialGradient5161)" d="m231.12 517.23c0 2.03-2.24 3.68-5 3.68s-5-1.65-5-3.68 2.24-3.67 5-3.67 5 1.64 5 3.67z" transform="matrix(-.73683 -.74709 1.1946 -.28103 -328.95 557.44)"/>
    <path id="path3855" style="opacity:.78889;filter:url(#filter3116);fill:url(#radialGradient5161)" d="m231.12 517.23c0 2.03-2.24 3.68-5 3.68s-5-1.65-5-3.68 2.24-3.67 5-3.67 5 1.64 5 3.67z" transform="matrix(-.73683 -.74709 1.1946 -.28103 -312.67 593.63)"/>
    <path id="path3859" style="filter:url(#filter3116);fill:url(#radialGradient5161)" d="m231.12 517.23c0 2.03-2.24 3.68-5 3.68s-5-1.65-5-3.68 2.24-3.67 5-3.67 5 1.64 5 3.67z" transform="matrix(-.56440 -.57242 .91394 -.21422 -123.32 446.43)"/>
    <path id="path3863" style="opacity:.88333;filter:url(#filter3116);fill:url(#radialGradient5161)" d="m231.12 517.23c0 2.03-2.24 3.68-5 3.68s-5-1.65-5-3.68 2.24-3.67 5-3.67 5 1.64 5 3.67z" transform="matrix(-.73683 -.74709 1.1946 -.28103 -186.54 478.17)"/>
    <path id="path3867" style="filter:url(#filter3116);fill:url(#radialGradient5161)" d="m231.12 517.23c0 2.03-2.24 3.68-5 3.68s-5-1.65-5-3.68 2.24-3.67 5-3.67 5 1.64 5 3.67z" transform="matrix(-.56440 -.57242 .91394 -.21422 -103.01 400.69)"/>
    <path id="path3873" style="fill-rule:evenodd;stroke:#008e00;stroke-width:1.3109px;fill:url(#radialGradient2618)" d="m198.85 105.07c-18.41 19.51-48.66 16.16-68.03 31.61 14.28 20.17-6.73 9.29-13.13 23.63-6.65 14.86-20.668 9.15-24.554 14.87 17.584-3.53 43.724 14.64 7.714 44.53 13.05 7.37-13.109 20.01 21.86 23.36 52.29-66.66 6.55-48.28 14.77-64.04 30.84-21 34.8 12.03 41.02 19.34 17.8-55.46-32.73-51.99 3.68-62.27 4.4-5.27 20.87-11.05 40.49-13.52 3.39-0.42-6.69-13.95-23.82-17.51zm-13.41 34.35c-5.47 1.05 0.57 7.37 0 0zm-49.46 98.46c-7.82 1.3 3.21 6.23 0 0z"/>
    <path id="path3924" style="opacity:.78889;filter:url(#filter3116);fill:url(#radialGradient5161)" d="m231.12 517.23c0 2.03-2.24 3.68-5 3.68s-5-1.65-5-3.68 2.24-3.67 5-3.67 5 1.64 5 3.67z" transform="matrix(-.55759 -.57822 .81710 -.13177 -63.081 491.42)"/>
    <path id="path3928" style="opacity:.78889;filter:url(#filter3116);fill:url(#radialGradient5161)" d="m231.12 517.23c0 2.03-2.24 3.68-5 3.68s-5-1.65-5-3.68 2.24-3.67 5-3.67 5 1.64 5 3.67z" transform="matrix(-.55759 -.57822 .81710 -.13177 -44.12 498.41)"/>
    <path id="path3932" style="filter:url(#filter3116);fill:url(#radialGradient5161)" d="m231.12 517.23c0 2.03-2.24 3.68-5 3.68s-5-1.65-5-3.68 2.24-3.67 5-3.67 5 1.64 5 3.67z" transform="matrix(-.55759 -.57822 .81710 -.13177 -57.963 440.06)"/>
    <path id="path3936" style="filter:url(#filter3116);fill:url(#radialGradient5161)" d="m231.12 517.23c0 2.03-2.24 3.68-5 3.68s-5-1.65-5-3.68 2.24-3.67 5-3.67 5 1.64 5 3.67z" transform="matrix(-.55759 -.57822 .81710 -.13177 -81.25 437.36)"/>
    <path id="path3940" style="opacity:.78889;filter:url(#filter3116);fill:url(#radialGradient5161)" d="m231.12 517.23c0 2.03-2.24 3.68-5 3.68s-5-1.65-5-3.68 2.24-3.67 5-3.67 5 1.64 5 3.67z" transform="matrix(-.55759 -.57822 .81710 -.13177 -101.12 436.87)"/>
    <path id="path3944" style="opacity:.78889;filter:url(#filter3116);fill:url(#radialGradient5161)" d="m231.12 517.23c0 2.03-2.24 3.68-5 3.68s-5-1.65-5-3.68 2.24-3.67 5-3.67 5 1.64 5 3.67z" transform="matrix(-.55759 -.57822 .81710 -.13177 -113.44 442.24)"/>
    <path id="path3948" style="opacity:.78889;filter:url(#filter3116);fill:url(#radialGradient5161)" d="m231.12 517.23c0 2.03-2.24 3.68-5 3.68s-5-1.65-5-3.68 2.24-3.67 5-3.67 5 1.64 5 3.67z" transform="matrix(-.55759 -.57822 .81710 -.13177 -123.65 448.89)"/>
    <path id="path3952" style="opacity:.78889;filter:url(#filter3116);fill:url(#radialGradient5161)" d="m231.12 517.23c0 2.03-2.24 3.68-5 3.68s-5-1.65-5-3.68 2.24-3.67 5-3.67 5 1.64 5 3.67z" transform="matrix(-.55759 -.57822 .81710 -.13177 -96.635 474.01)"/>
    <path id="path3956" style="opacity:.78889;filter:url(#filter3116);fill:url(#radialGradient5161)" d="m231.12 517.23c0 2.03-2.24 3.68-5 3.68s-5-1.65-5-3.68 2.24-3.67 5-3.67 5 1.64 5 3.67z" transform="matrix(-.55759 -.57822 .81710 -.13177 -103.67 492.8)"/>
    <path id="path3960" style="opacity:.78889;filter:url(#filter3116);fill:url(#radialGradient5161)" d="m231.12 517.23c0 2.03-2.24 3.68-5 3.68s-5-1.65-5-3.68 2.24-3.67 5-3.67 5 1.64 5 3.67z" transform="matrix(-.55759 -.57822 .81710 -.13177 -117.63 480.62)"/>
    <path id="path3964" style="opacity:.78889;filter:url(#filter3116);fill:url(#radialGradient5161)" d="m231.12 517.23c0 2.03-2.24 3.68-5 3.68s-5-1.65-5-3.68 2.24-3.67 5-3.67 5 1.64 5 3.67z" transform="matrix(-.55759 -.57822 .81710 -.13177 -149.23 498.82)"/>
    <path id="path3968" style="opacity:.78889;filter:url(#filter3116);fill:url(#radialGradient5161)" d="m231.12 517.23c0 2.03-2.24 3.68-5 3.68s-5-1.65-5-3.68 2.24-3.67 5-3.67 5 1.64 5 3.67z" transform="matrix(-.55759 -.57822 .81710 -.13177 -124.28 511.88)"/>
    <path id="path3972" style="opacity:.78889;filter:url(#filter3116);fill:url(#radialGradient5161)" d="m231.12 517.23c0 2.03-2.24 3.68-5 3.68s-5-1.65-5-3.68 2.24-3.67 5-3.67 5 1.64 5 3.67z" transform="matrix(-.55759 -.57822 .81710 -.13177 -99.702 519.11)"/>
    <path id="path3976" style="opacity:.78889;filter:url(#filter3116);fill:url(#radialGradient5161)" d="m231.12 517.23c0 2.03-2.24 3.68-5 3.68s-5-1.65-5-3.68 2.24-3.67 5-3.67 5 1.64 5 3.67z" transform="matrix(-.55759 -.57822 .81710 -.13177 -105.38 510.63)"/>
    <path id="path3980" style="filter:url(#filter3116);fill:url(#radialGradient5161)" d="m231.12 517.23c0 2.03-2.24 3.68-5 3.68s-5-1.65-5-3.68 2.24-3.67 5-3.67 5 1.64 5 3.67z" transform="matrix(-.55759 -.57822 .81710 -.13177 -60.271 523.93)"/>
    <path id="path3984" style="opacity:.78889;filter:url(#filter3116);fill:url(#radialGradient5161)" d="m231.12 517.23c0 2.03-2.24 3.68-5 3.68s-5-1.65-5-3.68 2.24-3.67 5-3.67 5 1.64 5 3.67z" transform="matrix(-.55759 -.57822 .81710 -.13177 -78.14 519.18)"/>
    <path id="path3988" style="opacity:.78889;filter:url(#filter3116);fill:url(#radialGradient5161)" d="m231.12 517.23c0 2.03-2.24 3.68-5 3.68s-5-1.65-5-3.68 2.24-3.67 5-3.67 5 1.64 5 3.67z" transform="matrix(-.55759 -.57822 .81710 -.13177 -55.948 507.97)"/>
    <path id="path3992" style="opacity:.78889;filter:url(#filter3116);fill:url(#radialGradient5161)" d="m231.12 517.23c0 2.03-2.24 3.68-5 3.68s-5-1.65-5-3.68 2.24-3.67 5-3.67 5 1.64 5 3.67z" transform="matrix(-.55759 -.57822 .81710 -.13177 -77.659 489.08)"/>
    <path id="path3996" style="opacity:.78889;filter:url(#filter3116);fill:url(#radialGradient5161)" d="m231.12 517.23c0 2.03-2.24 3.68-5 3.68s-5-1.65-5-3.68 2.24-3.67 5-3.67 5 1.64 5 3.67z" transform="matrix(-.55759 -.57822 .81710 -.13177 -72.256 504.44)"/>
    <path id="path4000" style="opacity:.78889;filter:url(#filter3116);fill:url(#radialGradient5161)" d="m231.12 517.23c0 2.03-2.24 3.68-5 3.68s-5-1.65-5-3.68 2.24-3.67 5-3.67 5 1.64 5 3.67z" transform="matrix(-.55759 -.57822 .81710 -.13177 -137.4 475.44)"/>
    <path id="path4004" style="filter:url(#filter3116);fill:url(#radialGradient5161)" d="m231.12 517.23c0 2.03-2.24 3.68-5 3.68s-5-1.65-5-3.68 2.24-3.67 5-3.67 5 1.64 5 3.67z" transform="matrix(-.55759 -.57822 .81710 -.13177 -162.46 460.43)"/>
    <path id="path4008" style="filter:url(#filter3116);fill:url(#radialGradient5161)" d="m231.12 517.23c0 2.03-2.24 3.68-5 3.68s-5-1.65-5-3.68 2.24-3.67 5-3.67 5 1.64 5 3.67z" transform="matrix(-.55759 -.57822 .81710 -.13177 -136.66 431.81)"/>
    <path id="path4012" style="opacity:.78889;filter:url(#filter3116);fill:url(#radialGradient5161)" d="m231.12 517.23c0 2.03-2.24 3.68-5 3.68s-5-1.65-5-3.68 2.24-3.67 5-3.67 5 1.64 5 3.67z" transform="matrix(-.55759 -.57822 .81710 -.13177 -170.79 484.92)"/>
    <path id="path4016" style="opacity:.78889;filter:url(#filter3116);fill:url(#radialGradient5161)" d="m231.12 517.23c0 2.03-2.24 3.68-5 3.68s-5-1.65-5-3.68 2.24-3.67 5-3.67 5 1.64 5 3.67z" transform="matrix(-.55759 -.57822 .81710 -.13177 -144.79 512.45)"/>
    <path id="path4020" style="opacity:.78889;filter:url(#filter3116);fill:url(#radialGradient5161)" d="m231.12 517.23c0 2.03-2.24 3.68-5 3.68s-5-1.65-5-3.68 2.24-3.67 5-3.67 5 1.64 5 3.67z" transform="matrix(-.55759 -.57822 .81710 -.13177 -115.11 525.06)"/>
    <path id="path4024" style="opacity:.78889;filter:url(#filter3116);fill:url(#radialGradient5161)" d="m231.12 517.23c0 2.03-2.24 3.68-5 3.68s-5-1.65-5-3.68 2.24-3.67 5-3.67 5 1.64 5 3.67z" transform="matrix(-.55759 -.57822 .81710 -.13177 -83.682 533.11)"/>
    <path id="path4028" style="filter:url(#filter3116);fill:url(#radialGradient5161)" d="m231.12 517.23c0 2.03-2.24 3.68-5 3.68s-5-1.65-5-3.68 2.24-3.67 5-3.67 5 1.64 5 3.67z" transform="matrix(-.55759 -.57822 .81710 -.13177 -64.835 536.01)"/>
    <path id="path4032" style="filter:url(#filter3116);fill:url(#radialGradient5161)" d="m231.12 517.23c0 2.03-2.24 3.68-5 3.68s-5-1.65-5-3.68 2.24-3.67 5-3.67 5 1.64 5 3.67z" transform="matrix(-.55759 -.57822 .81710 -.13177 -42.844 534.18)"/>
    <path id="path4036" style="opacity:.76111;filter:url(#filter3116);fill:url(#radialGradient5161)" d="m231.12 517.23c0 2.03-2.24 3.68-5 3.68s-5-1.65-5-3.68 2.24-3.67 5-3.67 5 1.64 5 3.67z" transform="matrix(-.55759 -.57822 .81710 -.13177 -17.238 539)"/>
    <path id="path4040" style="opacity:.76111;filter:url(#filter3116);fill:url(#radialGradient5161)" d="m231.12 517.23c0 2.03-2.24 3.68-5 3.68s-5-1.65-5-3.68 2.24-3.67 5-3.67 5 1.64 5 3.67z" transform="matrix(-.55759 -.57822 .81710 -.13177 -12.421 527.22)"/>
    <path id="path4044" style="opacity:.76111;filter:url(#filter3116);fill:url(#radialGradient5161)" d="m231.12 517.23c0 2.03-2.24 3.68-5 3.68s-5-1.65-5-3.68 2.24-3.67 5-3.67 5 1.64 5 3.67z" transform="matrix(-.55759 -.57822 .81710 -.13177 -25.071 529.8)"/>
    <path id="path4048" style="filter:url(#filter3116);fill:url(#radialGradient5161)" d="m231.12 517.23c0 2.03-2.24 3.68-5 3.68s-5-1.65-5-3.68 2.24-3.67 5-3.67 5 1.64 5 3.67z" transform="matrix(-.55759 -.57822 .81710 -.13177 -28.024 514.91)"/>
    <path id="path4052" style="opacity:.76111;filter:url(#filter3116);fill:url(#radialGradient5161)" d="m231.12 517.23c0 2.03-2.24 3.68-5 3.68s-5-1.65-5-3.68 2.24-3.67 5-3.67 5 1.64 5 3.67z" transform="matrix(-.55759 -.57822 .81710 -.13177 -5.4065 515.62)"/>
    <path id="path4056" style="filter:url(#filter3116);fill:url(#radialGradient5161)" d="m231.12 517.23c0 2.03-2.24 3.68-5 3.68s-5-1.65-5-3.68 2.24-3.67 5-3.67 5 1.64 5 3.67z" transform="matrix(-.55759 -.57822 .81710 -.13177 -21.711 498.27)"/>
    <path id="path4060" style="filter:url(#filter3116);fill:url(#radialGradient5161)" d="m231.12 517.23c0 2.03-2.24 3.68-5 3.68s-5-1.65-5-3.68 2.24-3.67 5-3.67 5 1.64 5 3.67z" transform="matrix(-.55759 -.57822 .81710 -.13177 -25.189 476.15)"/>
    <path id="path4064" style="filter:url(#filter3116);fill:url(#radialGradient5161)" d="m231.12 517.23c0 2.03-2.24 3.68-5 3.68s-5-1.65-5-3.68 2.24-3.67 5-3.67 5 1.64 5 3.67z" transform="matrix(-.55759 -.57822 .81710 -.13177 -30.961 482.6)"/>
    <path id="path4068" style="filter:url(#filter3116);fill:url(#radialGradient5161)" d="m231.12 517.23c0 2.03-2.24 3.68-5 3.68s-5-1.65-5-3.68 2.24-3.67 5-3.67 5 1.64 5 3.67z" transform="matrix(-.55759 -.57822 .81710 -.13177 -50.783 467.73)"/>
    <path id="path4072" style="filter:url(#filter3116);fill:url(#radialGradient5161)" d="m231.12 517.23c0 2.03-2.24 3.68-5 3.68s-5-1.65-5-3.68 2.24-3.67 5-3.67 5 1.64 5 3.67z" transform="matrix(-.55759 -.57822 .81710 -.13177 -69.714 452.11)"/>
    <path id="path4076" style="filter:url(#filter3116);fill:url(#radialGradient5161)" d="m231.12 517.23c0 2.03-2.24 3.68-5 3.68s-5-1.65-5-3.68 2.24-3.67 5-3.67 5 1.64 5 3.67z" transform="matrix(-.55759 -.57822 .81710 -.13177 -68.708 429.24)"/>
    <path id="path4080" style="filter:url(#filter3116);fill:url(#radialGradient5161)" d="m231.12 517.23c0 2.03-2.24 3.68-5 3.68s-5-1.65-5-3.68 2.24-3.67 5-3.67 5 1.64 5 3.67z" transform="matrix(-.55759 -.57822 .81710 -.13177 -85.618 415.99)"/>
    <path id="path4084" style="filter:url(#filter3116);fill:url(#radialGradient5161)" d="m231.12 517.23c0 2.03-2.24 3.68-5 3.68s-5-1.65-5-3.68 2.24-3.67 5-3.67 5 1.64 5 3.67z" transform="matrix(-.55759 -.57822 .81710 -.13177 -93.423 423.66)"/>
    <path id="path4088" style="filter:url(#filter3116);fill:url(#radialGradient5161)" d="m231.12 517.23c0 2.03-2.24 3.68-5 3.68s-5-1.65-5-3.68 2.24-3.67 5-3.67 5 1.64 5 3.67z" transform="matrix(-.55759 -.57822 .81710 -.13177 -100.3 405.97)"/>
    <path id="path4092" style="filter:url(#filter3116);fill:url(#radialGradient5161)" d="m231.12 517.23c0 2.03-2.24 3.68-5 3.68s-5-1.65-5-3.68 2.24-3.67 5-3.67 5 1.64 5 3.67z" transform="matrix(-.55759 -.57822 .81710 -.13177 -110.91 393.5)"/>
    <path id="path4096" style="filter:url(#filter3116);fill:url(#radialGradient5161)" d="m231.12 517.23c0 2.03-2.24 3.68-5 3.68s-5-1.65-5-3.68 2.24-3.67 5-3.67 5 1.64 5 3.67z" transform="matrix(-.55759 -.57822 .81710 -.13177 -110.91 393.5)"/>
    <path id="path4098" style="filter:url(#filter3116);fill:url(#radialGradient5161)" d="m231.12 517.23c0 2.03-2.24 3.68-5 3.68s-5-1.65-5-3.68 2.24-3.67 5-3.67 5 1.64 5 3.67z" transform="matrix(-.55759 -.57822 .81710 -.13177 -131.65 400.41)"/>
    <path id="path4102" style="filter:url(#filter3116);fill:url(#radialGradient5161)" d="m231.12 517.23c0 2.03-2.24 3.68-5 3.68s-5-1.65-5-3.68 2.24-3.67 5-3.67 5 1.64 5 3.67z" transform="matrix(-.55759 -.57822 .81710 -.13177 -89.975 391.03)"/>
    <path id="path4106" style="opacity:.88333;filter:url(#filter3116);fill:url(#radialGradient5161)" d="m231.12 517.23c0 2.03-2.24 3.68-5 3.68s-5-1.65-5-3.68 2.24-3.67 5-3.67 5 1.64 5 3.67z" transform="matrix(-.55759 -.57822 .81710 -.13177 -63.082 390.15)"/>
    <path id="path4110" style="opacity:.88333;filter:url(#filter3116);fill:url(#radialGradient5161)" d="m231.12 517.23c0 2.03-2.24 3.68-5 3.68s-5-1.65-5-3.68 2.24-3.67 5-3.67 5 1.64 5 3.67z" transform="matrix(-.55759 -.57822 .81710 -.13177 -63.082 390.15)"/>
    <path id="path4112" style="opacity:.88333;filter:url(#filter3116);fill:url(#radialGradient5161)" d="m231.12 517.23c0 2.03-2.24 3.68-5 3.68s-5-1.65-5-3.68 2.24-3.67 5-3.67 5 1.64 5 3.67z" transform="matrix(-.55759 -.57822 .81710 -.13177 -47.968 422.33)"/>
    <path id="path4116" style="filter:url(#filter3116);fill:url(#radialGradient5161)" d="m231.12 517.23c0 2.03-2.24 3.68-5 3.68s-5-1.65-5-3.68 2.24-3.67 5-3.67 5 1.64 5 3.67z" transform="matrix(-.55759 -.57822 .81710 -.13177 -60.594 417.73)"/>
    <path id="path4120" style="opacity:.88333;filter:url(#filter3116);fill:url(#radialGradient5161)" d="m231.12 517.23c0 2.03-2.24 3.68-5 3.68s-5-1.65-5-3.68 2.24-3.67 5-3.67 5 1.64 5 3.67z" transform="matrix(-.55759 -.57822 .81710 -.13177 -29.149 446.24)"/>
    <path id="path4124" style="opacity:.88333;filter:url(#filter3116);fill:url(#radialGradient5161)" d="m231.12 517.23c0 2.03-2.24 3.68-5 3.68s-5-1.65-5-3.68 2.24-3.67 5-3.67 5 1.64 5 3.67z" transform="matrix(-.55759 -.57822 .81710 -.13177 -14.625 465.1)"/>
    <path id="path4128" style="filter:url(#filter3116);fill:url(#radialGradient5161)" d="m231.12 517.23c0 2.03-2.24 3.68-5 3.68s-5-1.65-5-3.68 2.24-3.67 5-3.67 5 1.64 5 3.67z" transform="matrix(-.55759 -.57822 .81710 -.13177 2.5419 464.82)"/>
    <path id="path4132" style="filter:url(#filter3116);fill:url(#radialGradient5161)" d="m231.12 517.23c0 2.03-2.24 3.68-5 3.68s-5-1.65-5-3.68 2.24-3.67 5-3.67 5 1.64 5 3.67z" transform="matrix(-.55759 -.57822 .81710 -.13177 21.818 465.82)"/>
    <path id="path4136" style="opacity:.76111;filter:url(#filter3116);fill:url(#radialGradient5161)" d="m231.12 517.23c0 2.03-2.24 3.68-5 3.68s-5-1.65-5-3.68 2.24-3.67 5-3.67 5 1.64 5 3.67z" transform="matrix(-.55759 -.57822 .81710 -.13177 8.6873 498.5)"/>
    <path id="path4140" style="opacity:.76111;filter:url(#filter3116);fill:url(#radialGradient5161)" d="m231.12 517.23c0 2.03-2.24 3.68-5 3.68s-5-1.65-5-3.68 2.24-3.67 5-3.67 5 1.64 5 3.67z" transform="matrix(-.55759 -.57822 .81710 -.13177 35.757 495.42)"/>
    <path id="path4144" style="opacity:.76111;filter:url(#filter3116);fill:url(#radialGradient5161)" d="m231.12 517.23c0 2.03-2.24 3.68-5 3.68s-5-1.65-5-3.68 2.24-3.67 5-3.67 5 1.64 5 3.67z" transform="matrix(-.55759 -.57822 .81710 -.13177 59.785 478.54)"/>
    <path id="path4148" style="opacity:.76111;filter:url(#filter3116);fill:url(#radialGradient5161)" d="m231.12 517.23c0 2.03-2.24 3.68-5 3.68s-5-1.65-5-3.68 2.24-3.67 5-3.67 5 1.64 5 3.67z" transform="matrix(-.55759 -.57822 .81710 -.13177 51.603 459.91)"/>
    <path id="path4152" style="filter:url(#filter3116);fill:url(#radialGradient5161)" d="m231.12 517.23c0 2.03-2.24 3.68-5 3.68s-5-1.65-5-3.68 2.24-3.67 5-3.67 5 1.64 5 3.67z" transform="matrix(-.55759 -.57822 .81710 -.13177 38.868 449.77)"/>
    <path id="path4156" style="filter:url(#filter3116);fill:url(#radialGradient5161)" d="m231.12 517.23c0 2.03-2.24 3.68-5 3.68s-5-1.65-5-3.68 2.24-3.67 5-3.67 5 1.64 5 3.67z" transform="matrix(-.55759 -.57822 .81710 -.13177 22.901 445.44)"/>
    <path id="path4160" style="opacity:.88333;filter:url(#filter3116);fill:url(#radialGradient5161)" d="m231.12 517.23c0 2.03-2.24 3.68-5 3.68s-5-1.65-5-3.68 2.24-3.67 5-3.67 5 1.64 5 3.67z" transform="matrix(-.55759 -.57822 .81710 -.13177 9.0227 435.76)"/>
    <path id="path4164" style="opacity:.88333;filter:url(#filter3116);fill:url(#radialGradient5161)" d="m231.12 517.23c0 2.03-2.24 3.68-5 3.68s-5-1.65-5-3.68 2.24-3.67 5-3.67 5 1.64 5 3.67z" transform="matrix(-.55759 -.57822 .81710 -.13177 -9.7684 428.72)"/>
    <path id="path4168" style="opacity:.88333;filter:url(#filter3116);fill:url(#radialGradient5161)" d="m231.12 517.23c0 2.03-2.24 3.68-5 3.68s-5-1.65-5-3.68 2.24-3.67 5-3.67 5 1.64 5 3.67z" transform="matrix(-.55759 -.57822 .81710 -.13177 -19.759 432.62)"/>
    <path id="path4172" style="opacity:.88333;filter:url(#filter3116);fill:url(#radialGradient5161)" d="m231.12 517.23c0 2.03-2.24 3.68-5 3.68s-5-1.65-5-3.68 2.24-3.67 5-3.67 5 1.64 5 3.67z" transform="matrix(-.55759 -.57822 .81710 -.13177 -20.426 416.8)"/>
    <path id="path4176" style="opacity:.88333;filter:url(#filter3116);fill:url(#radialGradient5161)" d="m231.12 517.23c0 2.03-2.24 3.68-5 3.68s-5-1.65-5-3.68 2.24-3.67 5-3.67 5 1.64 5 3.67z" transform="matrix(-.55759 -.57822 .81710 -.13177 -7.0457 398.24)"/>
    <path id="path4180" style="opacity:.88333;filter:url(#filter3116);fill:url(#radialGradient5161)" d="m231.12 517.23c0 2.03-2.24 3.68-5 3.68s-5-1.65-5-3.68 2.24-3.67 5-3.67 5 1.64 5 3.67z" transform="matrix(-.48789 -.50880 .69562 -.097302 46.068 382.84)"/>
    <path id="path4184" style="opacity:.88333;filter:url(#filter3116);fill:url(#radialGradient5161)" d="m231.12 517.23c0 2.03-2.24 3.68-5 3.68s-5-1.65-5-3.68 2.24-3.67 5-3.67 5 1.64 5 3.67z" transform="matrix(-.48789 -.50880 .69562 -.097302 16.147 366.34)"/>
    <path id="path4188" style="opacity:.88333;filter:url(#filter3116);fill:url(#radialGradient5161)" d="m231.12 517.23c0 2.03-2.24 3.68-5 3.68s-5-1.65-5-3.68 2.24-3.67 5-3.67 5 1.64 5 3.67z" transform="matrix(-.48789 -.50880 .69562 -.097302 11.984 397.53)"/>
    <path id="path4192" style="opacity:.88333;filter:url(#filter3116);fill:url(#radialGradient5161)" d="m231.12 517.23c0 2.03-2.24 3.68-5 3.68s-5-1.65-5-3.68 2.24-3.67 5-3.67 5 1.64 5 3.67z" transform="matrix(-.48789 -.50880 .69562 -.097302 8.7663 348.05)"/>
    <path id="path4196" style="filter:url(#filter3116);fill:url(#radialGradient5161)" d="m231.12 517.23c0 2.03-2.24 3.68-5 3.68s-5-1.65-5-3.68 2.24-3.67 5-3.67 5 1.64 5 3.67z" transform="matrix(-.48789 -.50880 .69562 -.097302 -26.169 338.89)"/>
    <path id="path4200" style="opacity:.88889;filter:url(#filter3116);fill:url(#radialGradient5161)" d="m231.12 517.23c0 2.03-2.24 3.68-5 3.68s-5-1.65-5-3.68 2.24-3.67 5-3.67 5 1.64 5 3.67z" transform="matrix(-.48789 -.50880 .69562 -.097302 -48.265 321.35)"/>
    <path id="path4204" style="filter:url(#filter3116);fill:url(#radialGradient5161)" d="m231.12 517.23c0 2.03-2.24 3.68-5 3.68s-5-1.65-5-3.68 2.24-3.67 5-3.67 5 1.64 5 3.67z" transform="matrix(-.48789 -.50880 .69562 -.097302 -21.918 306.6)"/>
    <path id="path4208" style="filter:url(#filter3116);fill:url(#radialGradient5161)" d="m231.12 517.23c0 2.03-2.24 3.68-5 3.68s-5-1.65-5-3.68 2.24-3.67 5-3.67 5 1.64 5 3.67z" transform="matrix(-.48789 -.50880 .69562 -.097302 1.1488 312.04)"/>
    <path id="path4212" style="opacity:.88333;filter:url(#filter3116);fill:url(#radialGradient5161)" d="m231.12 517.23c0 2.03-2.24 3.68-5 3.68s-5-1.65-5-3.68 2.24-3.67 5-3.67 5 1.64 5 3.67z" transform="matrix(-.48789 -.50880 .69562 -.097302 28.026 328.58)"/>
    <path id="path4216" style="opacity:.88333;filter:url(#filter3116);fill:url(#radialGradient5161)" d="m231.12 517.23c0 2.03-2.24 3.68-5 3.68s-5-1.65-5-3.68 2.24-3.67 5-3.67 5 1.64 5 3.67z" transform="matrix(-.48789 -.50880 .69562 -.097302 42.518 344.4)"/>
    <path id="path4220" style="opacity:.88333;filter:url(#filter3116);fill:url(#radialGradient5161)" d="m231.12 517.23c0 2.03-2.24 3.68-5 3.68s-5-1.65-5-3.68 2.24-3.67 5-3.67 5 1.64 5 3.67z" transform="matrix(-.48789 -.50880 .69562 -.097302 54.065 355.56)"/>
    <path id="path4224" style="opacity:.88333;filter:url(#filter3116);fill:url(#radialGradient5161)" d="m231.12 517.23c0 2.03-2.24 3.68-5 3.68s-5-1.65-5-3.68 2.24-3.67 5-3.67 5 1.64 5 3.67z" transform="matrix(-.48789 -.50880 .69562 -.097302 69.359 371.72)"/>
    <path id="path4228" style="opacity:.88333;filter:url(#filter3116);fill:url(#radialGradient5161)" d="m231.12 517.23c0 2.03-2.24 3.68-5 3.68s-5-1.65-5-3.68 2.24-3.67 5-3.67 5 1.64 5 3.67z" transform="matrix(-.48789 -.50880 .69562 -.097302 72.717 391.9)"/>
    <path id="path4232" style="filter:url(#filter3116);fill:url(#radialGradient5161)" d="m231.12 517.23c0 2.03-2.24 3.68-5 3.68s-5-1.65-5-3.68 2.24-3.67 5-3.67 5 1.64 5 3.67z" transform="matrix(-.48789 -.50880 .69562 -.097302 86.631 390.8)"/>
    <path id="path4236" style="filter:url(#filter3116);fill:url(#radialGradient5161)" d="m231.12 517.23c0 2.03-2.24 3.68-5 3.68s-5-1.65-5-3.68 2.24-3.67 5-3.67 5 1.64 5 3.67z" transform="matrix(-.48789 -.50880 .69562 -.097302 86.631 390.8)"/>
    <path id="path4238" style="filter:url(#filter3116);fill:url(#radialGradient5161)" d="m231.12 517.23c0 2.03-2.24 3.68-5 3.68s-5-1.65-5-3.68 2.24-3.67 5-3.67 5 1.64 5 3.67z" transform="matrix(-.55759 -.57822 .81710 -.13177 -176.31 467.61)"/>
    <path id="path4242" style="opacity:.76111;filter:url(#filter3116);fill:url(#radialGradient5161)" d="m231.12 517.23c0 2.03-2.24 3.68-5 3.68s-5-1.65-5-3.68 2.24-3.67 5-3.67 5 1.64 5 3.67z" transform="matrix(-.55759 -.57822 .81710 -.13177 31.936 530)"/>
    <path id="path4246" style="opacity:.76111;filter:url(#filter3116);fill:url(#radialGradient5161)" d="m231.12 517.23c0 2.03-2.24 3.68-5 3.68s-5-1.65-5-3.68 2.24-3.67 5-3.67 5 1.64 5 3.67z" transform="matrix(-.55759 -.57822 .81710 -.13177 44.732 511.86)"/>
    <path id="path4250" style="opacity:.76111;filter:url(#filter3116);fill:url(#radialGradient5161)" d="m231.12 517.23c0 2.03-2.24 3.68-5 3.68s-5-1.65-5-3.68 2.24-3.67 5-3.67 5 1.64 5 3.67z" transform="matrix(-.55759 -.57822 .81710 -.13177 50.75 500.23)"/>
    <path id="path4254" style="opacity:.76111;filter:url(#filter3116);fill:url(#radialGradient5161)" d="m231.12 517.23c0 2.03-2.24 3.68-5 3.68s-5-1.65-5-3.68 2.24-3.67 5-3.67 5 1.64 5 3.67z" transform="matrix(-.55360 -.58162 .76030 -.083414 80.602 466.12)"/>
    <path id="path3283" style="fill-rule:evenodd;stroke:url(#radialGradient2530);stroke-width:1px;fill:url(#radialGradient2528)" d="m270.63 290c18.99 2.59 34.89 14.81 53.29 19.31 15.44 29.75 16.26 41 32.25 56.95 7 19.74 2.78 37.9 6.35 58.09-0.62 19.82-24.28 34.96-42.01 37.94-15.52 16.62-39.69 22.69-61.7 18.86-21.26 1.27-40.56 19.26-62.34 11.99-18.2-8.76-21.51-31.16-24.76-49-5.12-25.29 4.55-50.49 13.33-73.8 9.09-19.5 23.75-35.51 37.13-52.1-0.16-14.67 14.89-21.58 27.38-23.09 7.13-1.29 14.27-2.73 21.08-5.15z"/>
    <path id="path2287" style="fill-rule:evenodd;stroke:url(#linearGradient2525);stroke-width:2.8;fill:url(#radialGradient2523)" d="m223.94 288.01c-12.6 5.97-27.85 9.29-31.83 15.92s-15.25 32.49-18.57 41.77c-1.29 3.63-5.32 15.37-9.11 27.24-4.11 12.81-8.1 25.71-8.79 28.47-1.33 5.3-3.98 18.56-7.29 25.86-2.35 5.15 0 8.62-2.66 13.26-2.65 4.64-1.32 11.27-1.32 11.27s-5.31 4.64-3.98 9.29c1.32 4.64 6.63 13.26 6.63 13.26s3.32 7.95 6.63 9.94c3.32 1.99 9.28 2.66 9.28 2.66s5.97 5.3 13.93 5.96c7.96 0.67 31.83 3.32 37.13 0.67 5.31-2.66 8.62-3.98 12.6-4.64 3.98-0.67 9.95-3.32 13.26-4.65 3.32-1.32 3.98-3.97 11.28-2.65 7.29 1.33 11.27-0.66 15.25-1.99 3.98-1.32 7.96-2.65 12.6-2.65s7.96-0.66 11.27-2.65c3.32-1.99 9.95-3.98 15.92-4.64 5.96-0.67 14.58-4.65 17.9-7.96 3.32-3.32 5.97-7.3 11.94-11.27 5.96-3.98 9.94-7.3 11.93-11.94s5.31-15.92 5.31-19.89c0-3.98 2.65-12.6 2.65-12.6s0.66-5.31-0.66-8.62c-1.33-3.32-2.66-10.61-2.66-14.59s-1.99-6.63-2.65-9.29c-0.66-2.65-1.33-8.62-3.98-13.92-2.65-5.31-9.28-13.93-9.28-13.93l-5.31-3.97-3.31-10.61s-12.6-15.92-17.24-19.9-17.24-11.93-22.55-14.59c-5.3-2.65-22.54-10.61-29.18-12.6-6.63-1.98-17.9-1.98-21.88-1.98s-11.93 3.31-13.26 5.96z"/>
    <path id="path2289" style="opacity:.85;filter:url(#filter3492);fill-rule:evenodd;fill:url(#radialGradient2861)" d="m314.31 523.86c-31.06-19.04-70.66 1.59-86.68 30.86-13.24 31.05-33.26 60.56-36.38 94.94-5.1 22.22 14.64 42.05 36.66 39.72 13.23-0.64 21.96-7.62 34.63-11.21 11.67 7.58 32.65-4.91 47.36-7.43 25.89-5.81 56.21-20.84 58.75-50.66 6.13-38.83-13.68-85.76-54.34-96.22z" transform="matrix(1.107 0 0 1.1409 -58.035 -296.97)"/>
    <path id="path3202" style="filter:url(#filter3373);fill-rule:evenodd;fill:url(#radialGradient5149)" d="m340.98 536c-16.44-19.07-18.27-5.81-35.96-5.27-5.54 0.93-12.89 0.4-16.05 6.03-3.87 6.48 3.49 14.98 10.44 12.57 9.99-1.63 26.99 12.65 32.32 19.7 5.29 7.18 9.58 12.51 19.3 10.17 6.25-3.87 7.9-4.03 14.53-5.82-3.37-5.07 1.62-10.21-1.07-16.22-2.61-5.08-7.54-19.81-16.95-25.33 1.37 3.75-0.64 3.18-6.56 4.17z" transform="matrix(1.0483 0 0 1 -43.936 -213.97)"/>
    <path id="path2291" style="opacity:.97222;fill-rule:evenodd;filter:url(#filter2990);stroke:url(#radialGradient2518);stroke-width:1px;fill:url(#radialGradient2516)" d="m309.48 376.21c0 3.77 3.98-6.84 3.98-10.61 0-5.06-5.4-6.33-9.28-7.3-5.12-1.28-10.04-8.04-13.27-11.27-3.62-3.63 0.13-8.1-0.66-11.27-0.55-2.19-8.04-1.99-9.95-1.99-5.01 0-8.62 1.49-13.26 2.65-4.57 1.14-7.93 4.61-11.27 7.96-3.46 3.45-5.82 6.98-7.96 11.27-2.24 4.49-5.18 7.71-7.29 11.94-2 3.99-4.87 8.69-7.3 11.93-3.08 4.12-5.69 7.42-9.94 10.61-3.1 2.32-6.78 9.26-9.29 12.6-2.65 3.54-5.34 7.34-8.62 10.61-3.86 3.87-7.4 7.41-11.27 11.27-2.84 2.84-5.22 7.21-8.62 10.61-3.01 3.01-5.6 6.8-7.96 9.95-2.6 3.47-6.07 8.17-7.29 10.61-0.11 0.22 10.7-1.71 11.27-1.99 3.88-1.94 6.45-5.59 10.61-6.63 4.54-1.13 9.62-4.25 13.93-5.97 5.11-2.04 10.13-6.06 15.25-8.62 5.49-2.75 9.49-6.31 15.25-8.62 4.74-1.9 8.88-4.21 13.26-5.97 4.82-1.92 9.27-4.8 13.93-5.97 4.83-1.2 9.11-4.1 13.92-5.3 4.6-1.15 7.91-4.35 10.61-7.96 2.74-3.65 5.32-6.66 7.3-10.61 1.29-2.59 7.95-5.8 9.94-7.29 1.56-1.17 2.89-3.19 3.98-4.64z"/>
    <path id="path2295" style="opacity:.58889;filter:url(#filter3399);fill-rule:evenodd;fill:url(#radialGradient2513)" d="m229.25 300.03c-0.55 11.3 14.93 40.33 23.73 25.02-13.45-1.16-16.22-16.58-23.73-25.02zm-29.84 16.63c7.33 12.71 60.35 38.48 31 15.29-8.96-7.67-19.74-12.22-31-15.29zm76.72 10.28c-30.59-2.13-39.38 33.23-56.81 51.16-3.69 30-48.69-1.4-47.93 10.2 18.81 2.68 51.87 3.57 23.71 25.11-4.7 21.51-38.16 22.3-40.46 23.18 15.69 0.37 32.27-0.36 14.2 14.84-17.46-4.66-27.56 5.76-3.5 1.25 15.07 8.02-37.76 9.82-9.56 12.65 16-7.62 20.38 5.91 17.39 7.18-7.31-25.87 20.32-5.84 33.89-19.76-14.26 8.37-14.21 47.34-6.02 13.16 15.07-18.94 5.94 34.37 10.04 3.28 2.41-27.83 28.43-41.32 51.98-50.66 30.83-11.83 45.5 10.24 61.32 33.83-18.13-23.93-35.15-49.54-7.43-75.32 9.56-23.48-22.28-35.29-35.67-49.46l-5.15-0.64zm-57.6 124.09c3.18 0.63 0.41-2.03 0 0zm55.03-104.53c31.34-3.8 55.04 17.46 26.45 36.76-21.79 19.81-27.57 26.6-55.34 39.37-22.56 5.24-55.21 37.69-69.31 28.51 17.61-20.6 48.57-48.41 64.02-71.22 11.66-10.29 17.39-28.08 34.18-33.42zm-84.53-8.12c-9.07 22.36 61.55 26.54 22.06 10.15-7.73-2.64-14.06-8.35-22.06-10.15zm38.22 17.93l-0.69 0.75 0.69-0.75zm-5.31 11.94c-1.03 1.24 1.42 0.22 0 0zm-0.03 0.63c-14.5-0.83-71.56-0.36-27.82 6 9.06-1.25 24.02 6.88 27.82-6zm55.03 51.56c-6.27 15.46 17.18 69.03 13.13 26.24-2.3-9.43-4.87-20.14-13.13-26.24zm-18.47 1.53c3.01 10.93-6.63 52.69 3.88 45.68 1.27-13.89 7.03-35.02-3.88-45.68z"/>
    <path id="path2319" style="filter:url(#filter3116);fill:url(#radialGradient5157)" d="m389.43 629.69c0 2.03-2.24 3.68-5.01 3.68-2.76 0-5-1.65-5-3.68s2.24-3.68 5-3.68c2.77 0 5.01 1.65 5.01 3.68z" transform="matrix(.53152 0 0 .49008 152.41 105.25)"/>
    <path id="path3120" style="filter:url(#filter3116);fill:url(#radialGradient5159)" d="m286.83 692.29c0 2.03-2.25 3.68-5.01 3.68s-5-1.65-5-3.68 2.24-3.67 5-3.67 5.01 1.64 5.01 3.67z" transform="matrix(.62522 0 0 .61756 77.467 52.2)"/>
    <path id="path3124" style="filter:url(#filter3116);fill:url(#radialGradient5161)" d="m231.12 517.23c0 2.03-2.24 3.68-5 3.68s-5-1.65-5-3.68 2.24-3.67 5-3.67 5 1.64 5 3.67z" transform="matrix(.61748 -.47808 .58446 .50510 -245.17 148.79)"/>
    <path id="path3128" style="filter:url(#filter3116);fill:url(#radialGradient5161)" d="m231.12 517.23c0 2.03-2.24 3.68-5 3.68s-5-1.65-5-3.68 2.24-3.67 5-3.67 5 1.64 5 3.67z" transform="matrix(.61748 -.47808 .58446 .50510 -291.59 280.75)"/>
    <path id="path3132" style="filter:url(#filter3116);fill:url(#radialGradient5161)" d="m231.12 517.23c0 2.03-2.24 3.68-5 3.68s-5-1.65-5-3.68 2.24-3.67 5-3.67 5 1.64 5 3.67z" transform="matrix(.77821 .065059 .089301 .76729 -16.123 81.334)"/>
    <path id="path3136" style="filter:url(#filter3116);fill:url(#radialGradient5161)" d="m231.12 517.23c0 2.03-2.24 3.68-5 3.68s-5-1.65-5-3.68 2.24-3.67 5-3.67 5 1.64 5 3.67z" transform="matrix(-.093960 -.77525 .73329 -.24291 -195.76 687.09)"/>
    <path id="path3140" style="filter:url(#filter3116);fill:url(#radialGradient5161)" d="m231.12 517.23c0 2.03-2.24 3.68-5 3.68s-5-1.65-5-3.68 2.24-3.67 5-3.67 5 1.64 5 3.67z" transform="matrix(-.093960 -.77525 .73329 -.24291 -133.43 590.94)"/>
    <path id="path3182" style="filter:url(#filter3188);fill-rule:evenodd;fill:#ffd5d5" d="m273.01 378.2c-1.28 1.76-5.1 7.52-8.62 9.28-5.43 2.71-4.47 1.95-5.97 7.96-1.11 4.45-7.41 5.03-10.61 6.63-5.53 2.77-5.99 3.46-6.63 6.63-0.82 4.09 6.56-5.62 10.61-6.63 3.96-0.99 7.57-5.68 10.61-7.96 4.79-3.59 5.43-3.26 6.63-9.28 0.5-2.51 2.45-4.73 3.98-6.63z"/>
    <g id="g3274" transform="translate(-30.031 -213.97)">
      <path id="path3144" style="opacity:.56111;filter:url(#filter3270);fill-rule:evenodd;fill:url(#radialGradient5171)" d="m302.38 590.84c-1.28 1.76-5.1 7.52-8.62 9.28-5.43 2.72-4.47 1.95-5.97 7.96-1.11 4.45-7.41 5.03-10.61 6.63-5.54 2.77-6 3.46-6.63 6.63-0.82 4.09 6.56-5.62 10.61-6.63 3.96-0.99 7.57-5.68 10.61-7.96 4.79-3.59 5.42-3.26 6.63-9.28 0.5-2.5 2.45-4.72 3.98-6.63z"/>
    </g>
    <g id="g3277" style="opacity:.50556" transform="matrix(-1 0 0 -1 503.05 1020.4)">
      <path id="path3279" style="opacity:.56111;filter:url(#filter3270);fill:url(#radialGradient5171);fill-rule:evenodd" d="m302.38 590.84c-1.28 1.76-5.1 7.52-8.62 9.28-5.43 2.72-4.47 1.95-5.97 7.96-1.11 4.45-7.41 5.03-10.61 6.63-5.54 2.77-6 3.46-6.63 6.63-0.82 4.09 6.56-5.62 10.61-6.63 3.96-0.99 7.57-5.68 10.61-7.96 4.79-3.59 5.42-3.26 6.63-9.28 0.5-2.5 2.45-4.72 3.98-6.63z"/>
    </g>
    <path id="path3301" style="filter:url(#filter3116);fill:url(#radialGradient5175)" d="m384.74 635.31c0 2.03-2.24 3.68-5.01 3.68-2.76 0-5-1.65-5-3.68s2.24-3.67 5-3.67c2.77 0 5.01 1.64 5.01 3.67z" transform="matrix(.34413 0 0 .61756 227 -7.1031)"/>
    <path id="path3305" style="filter:url(#filter3116);fill:url(#radialGradient5175)" d="m384.74 635.31c0 2.03-2.24 3.68-5.01 3.68-2.76 0-5-1.65-5-3.68s2.24-3.67 5-3.67c2.77 0 5.01 1.64 5.01 3.67z" transform="matrix(.34413 0 0 .61756 216.68 56.666)"/>
    <path id="path3496" style="filter:url(#filter3116);fill:url(#radialGradient5157)" d="m389.43 629.69c0 2.03-2.24 3.68-5.01 3.68-2.76 0-5-1.65-5-3.68s2.24-3.68 5-3.68c2.77 0 5.01 1.65 5.01 3.68z" transform="matrix(.53152 0 0 .49008 152.41 105.25)"/>
  </g>
  <metadata>
    <rdf:RDF>
      <cc:Work>
        <dc:format>image/svg+xml</dc:format>
        <dc:type rdf:resource="http://purl.org/dc/dcmitype/StillImage"/>
        <cc:license rdf:resource="http://creativecommons.org/licenses/publicdomain/"/>
        <dc:publisher>
          <cc:Agent rdf:about="http://openclipart.org/">
            <dc:title>Openclipart</dc:title>
          </cc:Agent>
        </dc:publisher>
        <dc:title>strawberry</dc:title>
        <dc:date>2007-04-22T11:17:28</dc:date>
        <dc:description>just a strawberry</dc:description>
        <dc:source>https://openclipart.org/detail/4043/strawberry-by-tomas_arad-4043</dc:source>
        <dc:creator>
          <cc:Agent>
            <dc:title>tomas_arad</dc:title>
          </cc:Agent>
        </dc:creator>
        <dc:subject>
          <rdf:Bag>
            <rdf:li>capsuni</rdf:li>
            <rdf:li>foeldiepper</rdf:li>
            <rdf:li>food</rdf:li>
            <rdf:li>fruit</rdf:li>
            <rdf:li>plant</rdf:li>
            <rdf:li>strawberry</rdf:li>
          </rdf:Bag>
        </dc:subject>
      </cc:Work>
      <cc:License rdf:about="http://creativecommons.org/licenses/publicdomain/">
        <cc:permits rdf:resource="http://creativecommons.org/ns#Reproduction"/>
        <cc:permits rdf:resource="http://creativecommons.org/ns#Distribution"/>
        <cc:permits rdf:resource="http://creativecommons.org/ns#DerivativeWorks"/>
      </cc:License>
    </rdf:RDF>
  </metadata>
</svg>
